<mxfile host="app.diagrams.net" modified="2022-09-20T10:54:02.514Z" agent="5.0 (Windows NT 10.0; Win64; x64) AppleWebKit/537.36 (KHTML, like Gecko) Chrome/105.0.0.0 Safari/537.36" etag="Hux7q5WL_NVfS6x-94ol" version="20.3.2" type="github">
  <diagram id="YcZk6YGl-E7LYOuZUrIg" name="PÃ¡gina-1">
    <mxGraphModel dx="2692" dy="1757" grid="1" gridSize="10" guides="1" tooltips="1" connect="1" arrows="1" fold="1" page="1" pageScale="1" pageWidth="827" pageHeight="1169" math="0" shadow="0">
      <root>
        <mxCell id="0" />
        <mxCell id="1" parent="0" />
        <mxCell id="8ZifcuQBr5us1B044plh-6" value="" style="rhombus;whiteSpace=wrap;html=1;" parent="1" vertex="1">
          <mxGeometry x="-870" y="-40" width="180" height="40" as="geometry" />
        </mxCell>
        <mxCell id="3MxSlysULrYTn8FJlQ2a-4" value="" style="endArrow=none;html=1;rounded=0;entryX=1;entryY=0.5;entryDx=0;entryDy=0;" parent="1" target="8ZifcuQBr5us1B044plh-6" edge="1">
          <mxGeometry width="50" height="50" relative="1" as="geometry">
            <mxPoint x="-610" y="-20" as="sourcePoint" />
            <mxPoint x="-710" y="-60" as="targetPoint" />
          </mxGeometry>
        </mxCell>
        <mxCell id="3MxSlysULrYTn8FJlQ2a-5" value="" style="endArrow=none;html=1;rounded=0;entryX=1;entryY=0.5;entryDx=0;entryDy=0;" parent="1" edge="1">
          <mxGeometry width="50" height="50" relative="1" as="geometry">
            <mxPoint x="-870" y="-20.5" as="sourcePoint" />
            <mxPoint x="-950" y="-20.5" as="targetPoint" />
          </mxGeometry>
        </mxCell>
        <mxCell id="3MxSlysULrYTn8FJlQ2a-6" value="" style="endArrow=classic;html=1;rounded=0;" parent="1" edge="1">
          <mxGeometry width="50" height="50" relative="1" as="geometry">
            <mxPoint x="-610" y="-20" as="sourcePoint" />
            <mxPoint x="-610" y="40" as="targetPoint" />
          </mxGeometry>
        </mxCell>
        <mxCell id="3MxSlysULrYTn8FJlQ2a-7" value="" style="rounded=0;whiteSpace=wrap;html=1;" parent="1" vertex="1">
          <mxGeometry x="-650" y="40" width="80" height="30" as="geometry" />
        </mxCell>
        <mxCell id="3MxSlysULrYTn8FJlQ2a-9" value="" style="endArrow=none;html=1;rounded=0;entryX=0.5;entryY=1;entryDx=0;entryDy=0;" parent="1" target="3MxSlysULrYTn8FJlQ2a-7" edge="1">
          <mxGeometry width="50" height="50" relative="1" as="geometry">
            <mxPoint x="-950" y="140" as="sourcePoint" />
            <mxPoint x="-710" y="-60" as="targetPoint" />
            <Array as="points">
              <mxPoint x="-610" y="140" />
            </Array>
          </mxGeometry>
        </mxCell>
        <mxCell id="3MxSlysULrYTn8FJlQ2a-10" value="" style="endArrow=none;html=1;rounded=0;" parent="1" edge="1">
          <mxGeometry width="50" height="50" relative="1" as="geometry">
            <mxPoint x="-950" y="140" as="sourcePoint" />
            <mxPoint x="-950" y="-20" as="targetPoint" />
          </mxGeometry>
        </mxCell>
        <mxCell id="3MxSlysULrYTn8FJlQ2a-11" value="" style="endArrow=classic;html=1;rounded=0;" parent="1" edge="1">
          <mxGeometry width="50" height="50" relative="1" as="geometry">
            <mxPoint x="-780" y="140" as="sourcePoint" />
            <mxPoint x="-780" y="180" as="targetPoint" />
          </mxGeometry>
        </mxCell>
        <mxCell id="3MxSlysULrYTn8FJlQ2a-20" value="" style="rhombus;whiteSpace=wrap;html=1;" parent="1" vertex="1">
          <mxGeometry x="-370" y="-50" width="180" height="40" as="geometry" />
        </mxCell>
        <mxCell id="3MxSlysULrYTn8FJlQ2a-21" value="" style="endArrow=none;html=1;rounded=0;entryX=1;entryY=0.5;entryDx=0;entryDy=0;" parent="1" target="3MxSlysULrYTn8FJlQ2a-20" edge="1">
          <mxGeometry width="50" height="50" relative="1" as="geometry">
            <mxPoint x="-110" y="-30" as="sourcePoint" />
            <mxPoint x="-210" y="-70" as="targetPoint" />
          </mxGeometry>
        </mxCell>
        <mxCell id="3MxSlysULrYTn8FJlQ2a-22" value="" style="endArrow=none;html=1;rounded=0;entryX=1;entryY=0.5;entryDx=0;entryDy=0;" parent="1" edge="1">
          <mxGeometry width="50" height="50" relative="1" as="geometry">
            <mxPoint x="-370" y="-30.5" as="sourcePoint" />
            <mxPoint x="-450" y="-30.5" as="targetPoint" />
          </mxGeometry>
        </mxCell>
        <mxCell id="3MxSlysULrYTn8FJlQ2a-23" value="" style="endArrow=classic;html=1;rounded=0;" parent="1" edge="1">
          <mxGeometry width="50" height="50" relative="1" as="geometry">
            <mxPoint x="-110" y="-30" as="sourcePoint" />
            <mxPoint x="-110" y="30" as="targetPoint" />
          </mxGeometry>
        </mxCell>
        <mxCell id="3MxSlysULrYTn8FJlQ2a-24" value="" style="rounded=0;whiteSpace=wrap;html=1;" parent="1" vertex="1">
          <mxGeometry x="-150" y="30" width="80" height="30" as="geometry" />
        </mxCell>
        <mxCell id="3MxSlysULrYTn8FJlQ2a-25" value="" style="endArrow=none;html=1;rounded=0;entryX=0.5;entryY=1;entryDx=0;entryDy=0;" parent="1" target="3MxSlysULrYTn8FJlQ2a-24" edge="1">
          <mxGeometry width="50" height="50" relative="1" as="geometry">
            <mxPoint x="-450" y="130" as="sourcePoint" />
            <mxPoint x="-210" y="-70" as="targetPoint" />
            <Array as="points">
              <mxPoint x="-110" y="130" />
            </Array>
          </mxGeometry>
        </mxCell>
        <mxCell id="3MxSlysULrYTn8FJlQ2a-27" value="" style="endArrow=classic;html=1;rounded=0;" parent="1" edge="1">
          <mxGeometry width="50" height="50" relative="1" as="geometry">
            <mxPoint x="-280" y="130" as="sourcePoint" />
            <mxPoint x="-280" y="170" as="targetPoint" />
          </mxGeometry>
        </mxCell>
        <mxCell id="3MxSlysULrYTn8FJlQ2a-28" value="" style="rounded=0;whiteSpace=wrap;html=1;" parent="1" vertex="1">
          <mxGeometry x="-490" y="30" width="80" height="30" as="geometry" />
        </mxCell>
        <mxCell id="3MxSlysULrYTn8FJlQ2a-29" value="" style="endArrow=none;html=1;rounded=0;entryX=0.5;entryY=1;entryDx=0;entryDy=0;" parent="1" target="3MxSlysULrYTn8FJlQ2a-28" edge="1">
          <mxGeometry width="50" height="50" relative="1" as="geometry">
            <mxPoint x="-450" y="130" as="sourcePoint" />
            <mxPoint x="-230" y="110" as="targetPoint" />
          </mxGeometry>
        </mxCell>
        <mxCell id="3MxSlysULrYTn8FJlQ2a-30" value="" style="endArrow=classic;html=1;rounded=0;entryX=0.5;entryY=0;entryDx=0;entryDy=0;" parent="1" target="3MxSlysULrYTn8FJlQ2a-28" edge="1">
          <mxGeometry width="50" height="50" relative="1" as="geometry">
            <mxPoint x="-450" y="-30" as="sourcePoint" />
            <mxPoint x="-230" y="110" as="targetPoint" />
          </mxGeometry>
        </mxCell>
        <mxCell id="3MxSlysULrYTn8FJlQ2a-43" style="edgeStyle=orthogonalEdgeStyle;rounded=0;orthogonalLoop=1;jettySize=auto;html=1;exitX=0.5;exitY=1;exitDx=0;exitDy=0;entryX=0.5;entryY=0;entryDx=0;entryDy=0;" parent="1" source="3MxSlysULrYTn8FJlQ2a-31" target="3MxSlysULrYTn8FJlQ2a-38" edge="1">
          <mxGeometry relative="1" as="geometry" />
        </mxCell>
        <mxCell id="3MxSlysULrYTn8FJlQ2a-31" value="" style="rounded=0;whiteSpace=wrap;html=1;" parent="1" vertex="1">
          <mxGeometry x="-900" y="260" width="80" height="30" as="geometry" />
        </mxCell>
        <mxCell id="3MxSlysULrYTn8FJlQ2a-44" style="edgeStyle=orthogonalEdgeStyle;rounded=0;orthogonalLoop=1;jettySize=auto;html=1;exitX=0.5;exitY=1;exitDx=0;exitDy=0;entryX=0.5;entryY=0;entryDx=0;entryDy=0;" parent="1" source="3MxSlysULrYTn8FJlQ2a-32" target="3MxSlysULrYTn8FJlQ2a-39" edge="1">
          <mxGeometry relative="1" as="geometry" />
        </mxCell>
        <mxCell id="3MxSlysULrYTn8FJlQ2a-32" value="" style="rounded=0;whiteSpace=wrap;html=1;" parent="1" vertex="1">
          <mxGeometry x="-830" y="260" width="80" height="30" as="geometry" />
        </mxCell>
        <mxCell id="3MxSlysULrYTn8FJlQ2a-46" style="edgeStyle=orthogonalEdgeStyle;rounded=0;orthogonalLoop=1;jettySize=auto;html=1;exitX=0.5;exitY=1;exitDx=0;exitDy=0;entryX=0.5;entryY=0;entryDx=0;entryDy=0;" parent="1" source="3MxSlysULrYTn8FJlQ2a-33" target="3MxSlysULrYTn8FJlQ2a-40" edge="1">
          <mxGeometry relative="1" as="geometry" />
        </mxCell>
        <mxCell id="3MxSlysULrYTn8FJlQ2a-33" value="" style="rounded=0;whiteSpace=wrap;html=1;" parent="1" vertex="1">
          <mxGeometry x="-670" y="260" width="80" height="30" as="geometry" />
        </mxCell>
        <mxCell id="3MxSlysULrYTn8FJlQ2a-45" style="edgeStyle=orthogonalEdgeStyle;rounded=0;orthogonalLoop=1;jettySize=auto;html=1;exitX=0.5;exitY=1;exitDx=0;exitDy=0;entryX=0.5;entryY=0;entryDx=0;entryDy=0;" parent="1" source="3MxSlysULrYTn8FJlQ2a-34" target="3MxSlysULrYTn8FJlQ2a-41" edge="1">
          <mxGeometry relative="1" as="geometry" />
        </mxCell>
        <mxCell id="3MxSlysULrYTn8FJlQ2a-34" value="" style="rounded=0;whiteSpace=wrap;html=1;" parent="1" vertex="1">
          <mxGeometry x="-750" y="260" width="80" height="30" as="geometry" />
        </mxCell>
        <mxCell id="3MxSlysULrYTn8FJlQ2a-35" value="" style="endArrow=none;html=1;rounded=0;exitX=0;exitY=0;exitDx=0;exitDy=0;" parent="1" source="3MxSlysULrYTn8FJlQ2a-31" edge="1">
          <mxGeometry width="50" height="50" relative="1" as="geometry">
            <mxPoint x="-750" y="400" as="sourcePoint" />
            <mxPoint x="-750" y="210" as="targetPoint" />
            <Array as="points">
              <mxPoint x="-750" y="210" />
              <mxPoint x="-590" y="260" />
            </Array>
          </mxGeometry>
        </mxCell>
        <mxCell id="3MxSlysULrYTn8FJlQ2a-36" value="" style="endArrow=classic;html=1;rounded=0;" parent="1" edge="1">
          <mxGeometry width="50" height="50" relative="1" as="geometry">
            <mxPoint x="-750" y="180" as="sourcePoint" />
            <mxPoint x="-750" y="210" as="targetPoint" />
          </mxGeometry>
        </mxCell>
        <mxCell id="3MxSlysULrYTn8FJlQ2a-38" value="" style="rounded=0;whiteSpace=wrap;html=1;" parent="1" vertex="1">
          <mxGeometry x="-900" y="320" width="80" height="30" as="geometry" />
        </mxCell>
        <mxCell id="3MxSlysULrYTn8FJlQ2a-39" value="" style="rounded=0;whiteSpace=wrap;html=1;" parent="1" vertex="1">
          <mxGeometry x="-830" y="320" width="80" height="30" as="geometry" />
        </mxCell>
        <mxCell id="3MxSlysULrYTn8FJlQ2a-40" value="" style="rounded=0;whiteSpace=wrap;html=1;" parent="1" vertex="1">
          <mxGeometry x="-670" y="320" width="80" height="30" as="geometry" />
        </mxCell>
        <mxCell id="3MxSlysULrYTn8FJlQ2a-41" value="" style="rounded=0;whiteSpace=wrap;html=1;" parent="1" vertex="1">
          <mxGeometry x="-750" y="320" width="80" height="30" as="geometry" />
        </mxCell>
        <mxCell id="3MxSlysULrYTn8FJlQ2a-47" value="" style="endArrow=none;html=1;rounded=0;entryX=0.5;entryY=1;entryDx=0;entryDy=0;exitX=0.5;exitY=1;exitDx=0;exitDy=0;" parent="1" source="3MxSlysULrYTn8FJlQ2a-40" target="3MxSlysULrYTn8FJlQ2a-38" edge="1">
          <mxGeometry width="50" height="50" relative="1" as="geometry">
            <mxPoint x="-620" y="370" as="sourcePoint" />
            <mxPoint x="-810" y="370" as="targetPoint" />
            <Array as="points">
              <mxPoint x="-630" y="400" />
              <mxPoint x="-860" y="400" />
            </Array>
          </mxGeometry>
        </mxCell>
        <mxCell id="3MxSlysULrYTn8FJlQ2a-48" value="" style="endArrow=none;html=1;rounded=0;entryX=0.5;entryY=1;entryDx=0;entryDy=0;" parent="1" target="3MxSlysULrYTn8FJlQ2a-39" edge="1">
          <mxGeometry width="50" height="50" relative="1" as="geometry">
            <mxPoint x="-790" y="400" as="sourcePoint" />
            <mxPoint x="-730" y="430" as="targetPoint" />
          </mxGeometry>
        </mxCell>
        <mxCell id="3MxSlysULrYTn8FJlQ2a-49" value="" style="endArrow=none;html=1;rounded=0;entryX=0.5;entryY=1;entryDx=0;entryDy=0;" parent="1" target="3MxSlysULrYTn8FJlQ2a-41" edge="1">
          <mxGeometry width="50" height="50" relative="1" as="geometry">
            <mxPoint x="-710" y="400" as="sourcePoint" />
            <mxPoint x="-630" y="450" as="targetPoint" />
          </mxGeometry>
        </mxCell>
        <mxCell id="3MxSlysULrYTn8FJlQ2a-50" value="" style="endArrow=classic;html=1;rounded=0;" parent="1" edge="1">
          <mxGeometry width="50" height="50" relative="1" as="geometry">
            <mxPoint x="-750" y="400" as="sourcePoint" />
            <mxPoint x="-750" y="430" as="targetPoint" />
          </mxGeometry>
        </mxCell>
        <mxCell id="3MxSlysULrYTn8FJlQ2a-53" style="edgeStyle=orthogonalEdgeStyle;rounded=0;orthogonalLoop=1;jettySize=auto;html=1;exitX=1;exitY=0.5;exitDx=0;exitDy=0;" parent="1" source="3MxSlysULrYTn8FJlQ2a-51" edge="1">
          <mxGeometry relative="1" as="geometry">
            <mxPoint x="-260" y="400" as="targetPoint" />
            <Array as="points">
              <mxPoint x="-130" y="240" />
              <mxPoint x="-130" y="370" />
              <mxPoint x="-260" y="370" />
            </Array>
          </mxGeometry>
        </mxCell>
        <mxCell id="3MxSlysULrYTn8FJlQ2a-54" style="edgeStyle=orthogonalEdgeStyle;rounded=0;orthogonalLoop=1;jettySize=auto;html=1;exitX=0.5;exitY=1;exitDx=0;exitDy=0;entryX=0.5;entryY=0;entryDx=0;entryDy=0;" parent="1" source="3MxSlysULrYTn8FJlQ2a-51" target="3MxSlysULrYTn8FJlQ2a-52" edge="1">
          <mxGeometry relative="1" as="geometry" />
        </mxCell>
        <mxCell id="3MxSlysULrYTn8FJlQ2a-51" value="" style="rhombus;whiteSpace=wrap;html=1;" parent="1" vertex="1">
          <mxGeometry x="-350" y="220" width="180" height="40" as="geometry" />
        </mxCell>
        <mxCell id="3MxSlysULrYTn8FJlQ2a-55" style="edgeStyle=orthogonalEdgeStyle;rounded=0;orthogonalLoop=1;jettySize=auto;html=1;exitX=0.5;exitY=1;exitDx=0;exitDy=0;entryX=0;entryY=0.5;entryDx=0;entryDy=0;" parent="1" source="3MxSlysULrYTn8FJlQ2a-52" target="3MxSlysULrYTn8FJlQ2a-51" edge="1">
          <mxGeometry relative="1" as="geometry">
            <mxPoint x="-360" y="240" as="targetPoint" />
            <Array as="points">
              <mxPoint x="-260" y="335" />
              <mxPoint x="-400" y="335" />
              <mxPoint x="-400" y="240" />
            </Array>
          </mxGeometry>
        </mxCell>
        <mxCell id="3MxSlysULrYTn8FJlQ2a-52" value="" style="rounded=0;whiteSpace=wrap;html=1;" parent="1" vertex="1">
          <mxGeometry x="-320" y="290" width="120" height="25" as="geometry" />
        </mxCell>
        <mxCell id="3MxSlysULrYTn8FJlQ2a-65" style="edgeStyle=orthogonalEdgeStyle;rounded=0;orthogonalLoop=1;jettySize=auto;html=1;exitX=0;exitY=0.5;exitDx=0;exitDy=0;" parent="1" source="3MxSlysULrYTn8FJlQ2a-58" edge="1">
          <mxGeometry relative="1" as="geometry">
            <mxPoint x="-490" y="520" as="targetPoint" />
            <Array as="points">
              <mxPoint x="-640" y="620" />
              <mxPoint x="-640" y="520" />
            </Array>
          </mxGeometry>
        </mxCell>
        <mxCell id="3MxSlysULrYTn8FJlQ2a-66" style="edgeStyle=orthogonalEdgeStyle;rounded=0;orthogonalLoop=1;jettySize=auto;html=1;exitX=0.5;exitY=1;exitDx=0;exitDy=0;" parent="1" source="3MxSlysULrYTn8FJlQ2a-58" edge="1">
          <mxGeometry relative="1" as="geometry">
            <mxPoint x="-490" y="670" as="targetPoint" />
          </mxGeometry>
        </mxCell>
        <mxCell id="3MxSlysULrYTn8FJlQ2a-58" value="" style="rhombus;whiteSpace=wrap;html=1;" parent="1" vertex="1">
          <mxGeometry x="-580" y="600" width="180" height="40" as="geometry" />
        </mxCell>
        <mxCell id="3MxSlysULrYTn8FJlQ2a-63" style="edgeStyle=orthogonalEdgeStyle;rounded=0;orthogonalLoop=1;jettySize=auto;html=1;exitX=0.5;exitY=1;exitDx=0;exitDy=0;entryX=0.5;entryY=0;entryDx=0;entryDy=0;" parent="1" source="3MxSlysULrYTn8FJlQ2a-60" target="3MxSlysULrYTn8FJlQ2a-58" edge="1">
          <mxGeometry relative="1" as="geometry" />
        </mxCell>
        <mxCell id="3MxSlysULrYTn8FJlQ2a-60" value="" style="rounded=0;whiteSpace=wrap;html=1;" parent="1" vertex="1">
          <mxGeometry x="-550" y="550" width="120" height="25" as="geometry" />
        </mxCell>
        <mxCell id="3MxSlysULrYTn8FJlQ2a-64" value="" style="endArrow=classic;html=1;rounded=0;entryX=0.5;entryY=0;entryDx=0;entryDy=0;" parent="1" target="3MxSlysULrYTn8FJlQ2a-60" edge="1">
          <mxGeometry width="50" height="50" relative="1" as="geometry">
            <mxPoint x="-490" y="500" as="sourcePoint" />
            <mxPoint x="-480" y="710" as="targetPoint" />
          </mxGeometry>
        </mxCell>
        <mxCell id="uDeZrSG333JNhY7ju4cX-1" value="True" style="text;html=1;strokeColor=none;fillColor=none;align=center;verticalAlign=middle;whiteSpace=wrap;rounded=0;" vertex="1" parent="1">
          <mxGeometry x="-670" y="-50" width="60" height="30" as="geometry" />
        </mxCell>
        <mxCell id="uDeZrSG333JNhY7ju4cX-2" value="False" style="text;html=1;strokeColor=none;fillColor=none;align=center;verticalAlign=middle;whiteSpace=wrap;rounded=0;" vertex="1" parent="1">
          <mxGeometry x="-950" y="-50" width="60" height="30" as="geometry" />
        </mxCell>
      </root>
    </mxGraphModel>
  </diagram>
</mxfile>
